<svg xmlns="http://www.w3.org/2000/svg" width="142" height="80" viewBox="0 0 142 80">
  <path fill="#1E1E1E" d="M26.6 44.2C26.6 49.1 22.6 53.1 17.7 53.1 12.8 53.1 8.8 49.1 8.8 44.2L8.8 30.9C8.8 28.5 6.8 26.5 4.4 26.5 2 26.5 0 28.5 0 30.9L0 44.2C0 54 7.9 61.9 17.7 61.9 27.5 61.9 35.4 54 35.4 44.2 35.4 39.3 39.4 35.3 44.3 35.3 49.2 35.3 53.2 39.3 53.2 44.2L53.2 66.4C53.2 68.8 55.2 70.8 57.6 70.8 60 70.8 62 68.8 62 66.4L62 44.2C62 34.4 54.1 26.5 44.3 26.5 34.5 26.5 26.6 34.5 26.6 44.2zM79.6 35.3C82 35.3 84 33.3 84 30.9 84 28.5 82 26.5 79.6 26.5 77.2 26.5 75.2 24.5 75.2 22.1L75.2 17.7C75.2 12.8 79.2 8.8 84.1 8.8 89 8.8 93 12.8 93 17.7L93 44.2C93 54 100.9 61.9 110.7 61.9 116 61.9 120.7 59.6 124 55.9 127.2 59.6 132 61.9 137.3 61.9 139.7 61.9 141.7 59.9 141.7 57.5 141.7 55.1 139.7 53.1 137.3 53.1 132.4 53.1 128.4 49.1 128.4 44.2 128.4 39.3 132.4 35.3 137.3 35.3 139.7 35.3 141.7 33.3 141.7 30.9 141.7 28.5 139.7 26.5 137.3 26.5 132 26.5 127.3 28.8 124 32.5 120.8 28.8 116 26.5 110.7 26.5 108.3 26.5 106.3 28.5 106.3 30.9 106.3 33.3 108.3 35.3 110.7 35.3 115.6 35.3 119.6 39.3 119.6 44.2 119.6 49.1 115.6 53.1 110.7 53.1 105.8 53.1 101.8 49.1 101.8 44.2L101.8 17.7C101.8 7.9 93.9 0 84.1 0 74.3 0 66.4 7.9 66.4 17.7L66.4 75.2C66.4 77.6 68.4 79.6 70.8 79.6 73.2 79.6 75.2 77.6 75.2 75.2L75.2 39.7C75.2 37.3 77.2 35.3 79.6 35.3z"/>
</svg>
